<svg width="126" height="155" viewBox="0 0 126 155" fill="none" xmlns="http://www.w3.org/2000/svg">
<g clip-path="url(#clip0_325_16646)">
<path d="M126 105.564C126 120.711 121.549 132.063 114.074 138.821C111.716 140.951 97.5646 150.905 94.6745 152.07C84.8417 156.065 83.5793 146.245 69.6605 138.188C38.4678 120.178 13.2213 76.3681 13.2213 40.3479C13.2213 26.599 4.15249 24.5683 10.4309 17.6772C12.0586 15.8795 26.6086 5.75923 28.6017 4.4942C38.8664 -2.16388 53.4496 -1.63123 69.6273 7.72336C100.754 25.7335 126 69.5436 126 105.597V105.564Z" fill="url(#paint0_linear_325_16646)"/>
<path d="M96.2238 151.233C118.245 138.492 118.25 97.1842 96.2341 58.9701C74.2185 20.756 38.5194 0.106279 16.498 12.8476C-5.52339 25.589 -5.52801 66.8965 16.4877 105.111C38.5033 143.325 74.2024 163.974 96.2238 151.233Z" fill="url(#paint1_linear_325_16646)"/>
<path d="M91.4792 143.173C110.958 131.902 110.962 95.3626 91.4874 61.5591C72.0127 27.7555 40.4343 9.48884 20.9551 20.7593C1.47585 32.0298 1.47218 68.5695 20.9469 102.373C40.4216 136.177 72 154.443 91.4792 143.173Z" stroke="#84E4A4" stroke-width="0.69" stroke-miterlimit="10"/>
<path d="M71.7532 65.4489V53.8971L62.6179 48.604V59.1903L53.4827 53.8971V43.3108L44.3474 38.0176V48.604L35.2122 43.3108V96.2092L44.3474 101.502V112.089L53.4827 117.382V106.796L62.6179 112.089V122.675L71.7532 127.968V116.416C76.0716 117.182 79.3603 114.952 80.4898 110.457C81.6192 105.963 80.4233 99.8378 77.334 94.1452C80.4233 92.0146 81.6192 87.2874 80.4898 81.4948C79.3603 75.7023 76.0716 69.6768 71.7532 65.4489ZM44.3142 59.1903L67.1689 72.4066C69.6936 73.8713 71.7532 77.4334 71.7532 80.3297C71.7532 83.2259 69.6936 84.4244 67.1689 82.9596L44.3142 69.7433V59.157V59.1903ZM67.1689 104.166L44.3142 90.9493V80.363L67.1689 93.5793C69.6936 95.044 71.7532 98.6061 71.7532 101.502C71.7532 104.399 69.6936 105.597 67.1689 104.132V104.166Z" fill="white"/>
</g>
<defs>
<linearGradient id="paint0_linear_325_16646" x1="197.62" y1="34.5554" x2="66.0878" y2="76.2055" gradientUnits="userSpaceOnUse">
<stop offset="0.09" stop-color="#84E4A4"/>
<stop offset="0.97" stop-color="#3C53D7"/>
</linearGradient>
<linearGradient id="paint1_linear_325_16646" x1="-1263.11" y1="-735.52" x2="-1312.94" y2="-637.487" gradientUnits="userSpaceOnUse">
<stop offset="0.09" stop-color="#84E4A4"/>
<stop offset="0.97" stop-color="#3C53D7"/>
</linearGradient>
<clipPath id="clip0_325_16646">
<rect width="126" height="155" fill="white"/>
</clipPath>
</defs>
</svg>
